HIERARCHY
ROOT Hips
{
	OFFSET -0.253776030624 -23.0326585326 2.57172095741
	CHANNELS 6 Xposition Yposition Zposition Zrotation Yrotation Xrotation
	JOINT LeftHip
	{
		OFFSET 6.66032636834 -9.205611601 -0.722115805356
		CHANNELS 3 Zrotation Yrotation Xrotation
		JOINT LeftKnee
		{
			OFFSET 3.8836695464 -38.9244932567 -0.112999189656
			CHANNELS 3 Zrotation Yrotation Xrotation
			JOINT LeftFoot
			{
				OFFSET -1.51738809122 -41.4013352332 -4.30503317435
				CHANNELS 3 Zrotation Yrotation Xrotation
				End LeftToe
				{
                                  OFFSET 2.86796636162 -5.71771994283 12.3381660913
				}
			}
		}
	}
	JOINT RightHip
	{
		OFFSET -6.49912173808 -9.09121357075 -0.544418572997
		CHANNELS 3 Zrotation Yrotation Xrotation
		JOINT RightKnee
		{
			OFFSET -4.17825532889 -39.7048152227 -0.697256311804
			CHANNELS 3 Zrotation Yrotation Xrotation
			JOINT RightFoot
			{
				OFFSET 1.73520437588 -41.4401284092 -4.15155577664
				CHANNELS 3 Zrotation Yrotation Xrotation
				End RightToe
				{
                                        OFFSET -2.70313940979 -5.00907832091 12.7777383559
				}
			}
		}
	}
	JOINT Waist
	{
		OFFSET -0.266358225073 11.2185275573 -2.77104267948
		CHANNELS 3 Zrotation Yrotation Xrotation
		JOINT Spine
		{
			OFFSET 0.694962139915 14.1902109094 0.439174264748
			CHANNELS 3 Zrotation Yrotation Xrotation
                        JOINT Chest
                        {
                            OFFSET 0.108379360529 5.5545794832 2.22139798688
                            CHANNELS 3 Zrotation Yrotation Xrotation
                            JOINT Neck
                            {
                                OFFSET -0.37325946829 21.7681627865 -3.62039109054
                                CHANNELS 3 Zrotation Yrotation Xrotation
                                End Head
                                {
                                        OFFSET 0.200421391806 27.2204966534 1.98440983689
                                }
                            }
                            JOINT LeftInnerShoulder
                            {
                                OFFSET 8.07770196634 12.3967671861 -3.08014396055
                                CHANNELS 3 Zrotation Yrotation Xrotation
                                JOINT LeftShoulder
                                {
                                        OFFSET 9.48136807599 3.01588653542 -0.925998090165
                                        CHANNELS 3 Zrotation Yrotation Xrotation
                                        JOINT LeftElbow
                                        {
                                                OFFSET 26.8677411437 -1.45367253067 -2.68131907887
                                                CHANNELS 3 Zrotation Yrotation Xrotation
                                                End LeftWrist
                                                {
                                                        OFFSET 25.9592179669 0.903876426532 -0.237719554071
                                                }
                                        }
                                }
                            }
                            JOINT RightInnerShoulder
                            {
                                OFFSET -8.46650153045 12.0395485116 -3.49027777404
                                CHANNELS 3 Zrotation Yrotation Xrotation
                                JOINT RightShoulder
                                {
                                        OFFSET -10.0595761817 3.32800306526 -0.804608063371
                                        CHANNELS 3 Zrotation Yrotation Xrotation
                                        JOINT RightElbow
                                        {
                                                OFFSET -26.1862696765 -1.47173602294 -2.13563858236
                                                CHANNELS 3 Zrotation Yrotation Xrotation
                                                End RightWrist
                                                {
                                                        OFFSET -26.4991066794 0.697559981346 -0.749010240512
                                                }
                                        }
                                }
                            }
                        }
                }
            }
}
MOTION
Frames: 14
Frame Time: 0.0333333333333
0.00000 0.00000 0.00000 1.17060 1.91533 -1.04517 -5.61266 -3.92323 -9.14435 -8.37889 -0.55064 55.55047 7.81322 12.92531 -15.19443 3.11279 -0.65649 -8.83695 9.38779 1.05939 55.46819 8.39994 -7.51036 -19.23575 1.65117 -1.12821 8.41468 -0.11964 0.52173 -3.39754 -1.36466 -2.15780 4.93549 -0.18230 0.94996 -19.67983 -26.45621 10.85353 2.29154 -61.00960 4.61381 9.55582 5.42070 -51.81870 27.96324 27.10399 -6.54889 -2.00476 56.75050 -8.80329 15.29443 -14.90924 46.20649 10.75097
0.21894 1.96134 -0.00363 1.35047 3.30579 -1.86740 -5.50016 -4.56332 -10.77787 -8.97782 -0.23619 57.00677 6.78417 13.31208 -13.78104 2.88104 -0.85132 -11.10227 9.43677 -0.32870 57.73790 8.54592 -7.44785 -19.15365 1.94725 -1.06200 9.40983 -0.09682 0.78573 -3.80526 -1.01070 -1.55327 5.58338 -0.82424 -0.45010 -17.20444 -20.80827 11.08234 1.99578 -62.38260 2.53350 7.95260 9.95079 -51.07148 18.78321 21.12073 -6.82874 -1.75448 58.75915 -7.60978 12.69748 -17.28840 42.15191 4.08432
-0.83624 12.44347 0.01079 0.66441 2.18607 -1.60854 -3.66344 -3.93676 -12.37310 -8.09504 0.75990 57.70619 5.59749 14.46430 -14.51810 2.48975 0.41499 -15.01753 9.20852 -0.37806 58.53853 9.75581 -8.02928 -19.79450 2.13921 -2.05986 10.19529 0.26732 0.90541 -4.17597 -0.70628 -2.45520 5.73071 -1.90445 -0.02288 -18.00556 -19.98864 15.07378 1.38370 -56.33330 6.91004 6.68981 12.37056 -71.04544 22.87829 19.74100 -11.87487 -3.63607 50.97878 -11.34260 11.27018 -29.22923 65.01377 -1.81351
-2.38134 23.70316 0.08030 0.94870 2.59063 -1.17303 -2.12117 -2.33941 -12.70070 -7.23067 -0.15231 54.20136 2.74081 15.23382 -11.87316 2.11699 0.53521 -17.90130 9.30449 1.01219 58.38591 13.10199 -10.67967 -18.43889 1.99128 -2.73962 10.81281 -0.35786 0.86963 -5.00038 -0.87512 -2.92596 6.08195 -0.39939 1.63382 -19.69287 -16.26745 16.64125 -0.43081 -48.51121 6.91875 3.37506 21.54024 -78.44244 15.78600 14.72058 -14.32922 -5.88486 43.65580 -11.99090 8.83556 -42.30310 72.90799 -13.04922
-2.59216 36.01982 0.09100 1.51848 2.20741 -0.19098 -0.64859 -1.88818 -12.07059 -7.21303 -2.40328 51.59709 0.14196 16.66022 -11.44044 0.26082 -0.00531 -20.64443 9.16605 1.94665 59.45865 15.82413 -11.98138 -18.17749 1.93231 -2.94292 11.40685 -1.24269 1.56699 -5.96191 -0.65856 -2.14402 7.07549 -1.81121 -0.05158 -19.66393 -8.40853 18.19096 -1.30557 -45.43691 4.23673 -0.01462 50.67695 -76.08015 -19.92464 7.20876 -15.70160 -6.15085 44.13246 -12.46825 5.33319 -45.89297 66.26046 -24.76680
-2.24569 46.80546 0.10177 0.93861 4.32460 -2.16705 1.16983 -0.33407 -8.99133 -8.72560 -7.68660 49.77629 -2.87396 13.91938 -9.40218 -2.57780 -3.40357 -16.45504 7.31821 2.40782 54.56481 17.13604 -14.06623 -17.71980 2.56321 -2.69175 12.24308 -1.76132 1.07812 -3.61716 -0.65343 -1.89963 7.39926 -2.66457 -3.33600 -17.36175 -2.55596 17.26907 -1.15980 -41.88427 -1.90981 -5.59796 67.33692 -69.71322 -38.83621 0.52280 -15.27371 -4.91010 42.96165 -13.85692 1.13206 -55.53679 65.57741 -35.00764
-3.32068 55.87029 0.04291 1.57009 2.32963 0.31054 3.27079 0.79024 -11.40370 -9.55126 -7.57002 48.76537 -3.78188 16.15472 -8.84224 -4.96662 -4.84561 -21.04056 6.22054 3.23723 56.16015 17.23765 -19.09826 -16.07509 1.78565 -2.52849 9.93585 -1.80987 0.32103 -7.08544 -0.54547 -2.10422 8.04079 -2.93461 -2.04412 -11.63053 6.86103 15.62751 -2.48126 -36.12262 -2.95815 -7.58575 25.15801 -53.34918 -13.02978 -8.48424 -14.51630 -7.81640 38.30365 -4.94007 0.22995 -33.14299 54.29823 -25.57836
-1.30610 62.64256 -0.01374 2.14781 1.27133 -0.65644 5.29238 2.64815 -8.11775 -10.20593 -11.74277 42.37042 -6.60516 15.19345 -7.48034 -8.64089 -6.71097 -19.18023 6.39281 7.08861 52.82792 22.73676 -20.88644 -13.37788 1.73775 -1.56827 8.67636 -2.41653 -0.00921 -5.09691 -1.47547 -0.93126 7.91348 -2.89318 -1.27101 -9.12014 11.64369 10.80161 -4.17762 -26.22980 -4.64508 -12.62547 16.90108 -46.71114 -3.87528 -13.46988 -11.32428 -8.02139 33.25535 -5.00709 -1.85840 -33.52632 58.51917 -19.88660
-1.41188 62.46641 -0.06868 1.12529 -2.59521 1.02263 9.94159 4.49241 -6.33835 -9.30660 -11.08243 37.75394 -10.37019 18.78903 -8.31341 -10.23212 -5.16514 -19.85399 9.07532 11.65047 50.44834 23.76993 -18.83568 -11.73801 2.22887 -2.24294 6.14502 -0.96478 -0.96841 -4.51520 -0.54464 -0.24105 6.92141 -4.47201 2.86120 -8.05262 14.54087 7.39233 -5.07943 -16.78006 3.42100 -11.99644 7.54377 -40.90784 0.75920 -15.73318 -5.24808 -9.37150 18.47195 2.60439 -6.02009 -19.65960 53.77427 -8.65410
-1.44765 59.23783 -0.05934 0.72619 0.13409 3.06339 14.95794 4.72683 -8.25767 -7.08710 -10.84845 35.04185 -12.30205 20.05627 -0.10235 -13.83686 -8.69397 -17.43989 7.31375 10.19940 44.20136 22.53690 -20.08219 -5.05658 2.50329 -0.98643 4.49060 -1.14882 -1.28962 -5.80253 -0.20670 0.12868 6.04363 -5.16671 -0.46457 -4.11477 19.18258 5.17681 -7.95640 -11.34749 -3.57118 -14.67405 8.63337 -35.57064 -3.40173 -20.46880 -4.88917 -9.17578 13.02992 1.94387 -10.55194 -18.31305 44.44114 -9.76853
-3.77612 51.59083 -0.08235 2.16839 1.29346 3.68718 16.89790 5.31069 -10.47819 -9.10357 -14.56761 38.63248 -12.24818 17.67832 -7.92354 -18.02616 -11.22369 -17.39193 7.19016 12.29904 45.91885 27.37400 -22.04504 -8.03894 1.57879 -0.27475 4.28235 -2.38617 -0.75126 -7.93189 -0.84356 0.60222 6.83877 -3.66656 -1.74239 -4.56605 26.40502 6.35073 -10.03134 -7.50490 -10.22282 -17.73266 7.90352 -41.62751 -0.43313 -27.53263 -6.87295 -10.71434 10.49813 3.45254 -12.11768 -16.18704 44.72072 -10.04441
-4.64948 40.02245 -0.03789 1.98971 1.85767 4.09287 21.41878 6.33964 -12.50389 -10.44003 -14.72315 42.13206 -14.22734 17.45612 -8.23727 -21.40076 -12.54236 -16.75565 8.17167 14.41852 44.04633 27.88539 -19.12119 -6.19969 1.81019 0.07762 3.56396 -3.11289 -0.76954 -7.86042 -0.72114 1.33443 6.66119 -4.93474 -3.74574 -2.25736 32.16063 5.88701 -11.89135 -5.09657 -13.31615 -19.99952 12.93038 -43.82660 -5.83493 -34.35494 -5.87767 -11.31305 8.04414 5.33166 -16.43454 -15.86414 42.33962 -13.05680
-3.80914 26.53078 -0.03632 2.31938 3.19726 4.00008 26.07238 8.67394 -14.47179 -10.69852 -13.77375 45.40799 -16.04511 16.68166 -6.55315 -24.74504 -12.85667 -15.70625 9.59070 15.77308 46.27763 26.64684 -18.30737 -4.92022 1.40696 0.33561 4.55805 -2.24749 -1.79959 -7.33116 -0.70848 1.02902 5.07454 -4.20062 -2.57332 -1.92727 31.97594 1.13131 -15.14405 5.61105 -13.30010 -24.70083 15.81296 -40.42257 -9.29880 -32.93216 -1.72822 -14.57518 -2.13284 8.31770 -21.04231 -24.31556 45.19439 -21.18170
-2.28322 7.23689 -0.01073 2.75201 3.97903 5.10721 28.37010 6.32442 -17.86417 -12.79630 -14.26990 47.22585 -16.99741 12.62222 -3.86004 -27.81967 -11.57985 -14.56619 9.62060 17.57609 45.75718 29.80375 -17.59919 7.72597 -0.38643 2.48015 2.86999 -0.09502 -2.46231 -4.30970 -0.57230 2.08696 3.29780 -4.94021 -3.20271 -1.87686 32.33561 -3.14845 -16.67910 10.31363 -13.68077 -27.01541 29.04109 -47.12240 -36.71778 -31.78160 2.38100 -17.73420 -6.89067 14.10753 -27.67296 -64.41342 44.76734 -68.22738
